<?xml version="1.0" encoding="UTF-8" standalone="no"?>
<!-- Created with Inkscape (http://www.inkscape.org/) -->

<svg
   width="61.517239mm"
   height="61.517239mm"
   viewBox="0 0 61.517239 61.517239"
   version="1.1"
   id="svg1"
   xml:space="preserve"
   inkscape:version="1.4.2 (ebf0e940d0, 2025-05-08)"
   sodipodi:docname="logo.svg"
   inkscape:export-filename="logo.png"
   inkscape:export-xdpi="211.39999"
   inkscape:export-ydpi="211.39999"
   xmlns:inkscape="http://www.inkscape.org/namespaces/inkscape"
   xmlns:sodipodi="http://sodipodi.sourceforge.net/DTD/sodipodi-0.dtd"
   xmlns="http://www.w3.org/2000/svg"
   xmlns:svg="http://www.w3.org/2000/svg"><sodipodi:namedview
     id="namedview1"
     pagecolor="#ffffff"
     bordercolor="#000000"
     borderopacity="0.25"
     inkscape:showpageshadow="2"
     inkscape:pageopacity="0.0"
     inkscape:pagecheckerboard="0"
     inkscape:deskcolor="#d1d1d1"
     inkscape:document-units="mm"
     inkscape:zoom="2.4113651"
     inkscape:cx="-6.8425972"
     inkscape:cy="112.17712"
     inkscape:window-width="3840"
     inkscape:window-height="2160"
     inkscape:window-x="1920"
     inkscape:window-y="0"
     inkscape:window-maximized="1"
     inkscape:current-layer="layer1" /><defs
     id="defs1" /><g
     inkscape:label="Layer 1"
     inkscape:groupmode="layer"
     id="layer1"
     transform="translate(-16.568964,-88.724144)"><path
       style="fill:#e66d14;fill-opacity:1;stroke:none"
       d="m 26.52197,130.22263 c -0.226532,-0.32342 -0.411878,-0.86214 -0.411878,-1.19717 0,-0.39729 -0.217961,-0.692 -0.626712,-0.84741 -1.424318,-0.54152 -2.16875,-2.44904 -1.467285,-3.75973 0.229801,-0.42939 0.183073,-0.65081 -0.233634,-1.10709 -0.775735,-0.8494 -1.377287,-2.16799 -1.370724,-3.00461 0.0077,-0.97757 0.918143,-2.95474 1.455616,-3.16099 0.326132,-0.12515 0.388946,-0.38651 0.269275,-1.12044 -0.31352,-1.9228 0.86694,-3.94561 2.645,-4.53243 0.813904,-0.26861 0.843501,-0.32745 0.719235,-1.42995 -0.366643,-3.25284 2.221249,-5.77197 5.484783,-5.33905 1.080837,0.14338 1.32653,0.10248 1.32653,-0.22081 0,-0.54602 1.501642,-2.20929 2.426284,-2.68744 0.835328,-0.43196 2.674313,-0.55154 3.678678,-0.2392 0.353052,0.10979 0.991206,0.44581 1.418121,0.7467 0.552131,0.38915 0.807673,0.45269 0.885203,0.2201 0.447418,-1.34226 2.852779,-2.941649 4.424005,-2.941649 1.571227,0 3.976588,1.599389 4.424006,2.941649 0.07753,0.23259 0.333072,0.16905 0.885203,-0.2201 0.426914,-0.30089 1.065069,-0.63691 1.418122,-0.7467 1.00436,-0.31234 2.84335,-0.19276 3.67868,0.2392 0.92464,0.47815 2.42628,2.14142 2.42628,2.68744 0,0.32329 0.24569,0.36419 1.32653,0.22081 3.26353,-0.43292 5.85143,2.08621 5.48478,5.33905 -0.12426,1.1025 -0.0947,1.16134 0.71924,1.42995 1.77806,0.58682 2.95852,2.60963 2.645,4.53243 -0.11967,0.73393 -0.0569,0.99529 0.26927,1.12044 0.53682,0.206 1.44794,2.18295 1.45562,3.1584 0.007,0.87322 -0.87566,2.70845 -1.45959,3.03524 -0.35096,0.1964 -0.3655,0.40081 -0.0998,1.40325 0.39667,1.49676 -0.1234,2.92163 -1.25111,3.42774 -0.44339,0.19899 -0.97415,0.78713 -1.2847,1.4236 -1.0053,2.06035 -1.98438,1.30099 -1.98438,-1.53905 0,-1.31383 -0.37471,-2.94201 -0.78285,-3.40161 -0.0998,-0.1124 -0.76817,0.0629 -1.48525,0.38963 -1.06841,0.48676 -1.7814,0.5953 -3.9496,0.60123 -2.37363,0.006 -2.80185,-0.0694 -4.16232,-0.73744 -0.85025,-0.41753 -1.70425,-1.06255 -1.943878,-1.46821 l -0.427396,-0.72352 -1.240351,0.61384 c -1.509737,0.74717 -4.253847,1.22209 -5.706629,0.98764 -2.291684,-0.36981 -4.28745,-1.58842 -5.072352,-3.09714 l -0.378686,-0.72791 -1.528237,0.77145 c -2.479687,1.25175 -4.280598,1.66445 -6.869684,1.57431 l -2.303804,-0.0802 -0.573494,1.44722 c -0.523489,1.32103 -0.898398,2.95381 -1.289143,5.61441 -0.171285,1.16628 -0.89666,1.35397 -1.561944,0.40414 z"
       id="path1"
       sodipodi:nodetypes="ssssscsssssssssssssssssscsscscssssccsscssscsscssss" /><text
       xml:space="preserve"
       style="font-size:15.5869px;line-height:1.1;font-family:'JetBrains Mono';-inkscape-font-specification:'JetBrains Mono';text-align:center;letter-spacing:0px;writing-mode:lr-tb;direction:ltr;text-anchor:middle;opacity:1;fill:#e66d14;fill-opacity:1;stroke:none;stroke-width:7;stroke-linecap:round;stroke-linejoin:round;paint-order:stroke markers fill"
       x="31.052568"
       y="169.80728"
       id="text3"
       transform="scale(1.2367161,0.80859302)"><tspan
         sodipodi:role="line"
         id="tspan3"
         x="31.052568"
         y="169.80728"
         style="font-weight:bold;fill:#e66d14;fill-opacity:1;stroke:none;stroke-width:7">X</tspan></text><text
       xml:space="preserve"
       style="font-size:15.5869px;line-height:1.1;font-family:'JetBrains Mono';-inkscape-font-specification:'JetBrains Mono';text-align:center;letter-spacing:0px;writing-mode:lr-tb;direction:ltr;text-anchor:middle;opacity:1;fill:#e66d14;fill-opacity:1;stroke:none;stroke-width:7;stroke-linecap:round;stroke-linejoin:round;paint-order:stroke markers fill"
       x="44.715698"
       y="169.80728"
       id="text4"
       transform="scale(1.2367161,0.80859302)"><tspan
         sodipodi:role="line"
         id="tspan4"
         x="44.715698"
         y="169.80728"
         style="font-weight:bold;fill:#e66d14;fill-opacity:1;stroke:none;stroke-width:7">X</tspan></text></g></svg>
